<?xml version="1.0" encoding="UTF-8" standalone="no"?>
<!-- Created with Inkscape (http://www.inkscape.org/) -->

<svg
   width="91.290085mm"
   height="56.487793mm"
   viewBox="0 0 91.290085 56.487793"
   version="1.1"
   id="svg5"
   xml:space="preserve"
   inkscape:version="1.2 (dc2aedaf03, 2022-05-15)"
   sodipodi:docname="Motorcycle silhouette.svg"
   xmlns:inkscape="http://www.inkscape.org/namespaces/inkscape"
   xmlns:sodipodi="http://sodipodi.sourceforge.net/DTD/sodipodi-0.dtd"
   xmlns="http://www.w3.org/2000/svg"
   xmlns:svg="http://www.w3.org/2000/svg"
   xmlns:rdf="http://www.w3.org/1999/02/22-rdf-syntax-ns#"
   xmlns:cc="http://creativecommons.org/ns#"
   xmlns:dc="http://purl.org/dc/elements/1.1/"><title
     id="title183">Motorcycle silhouette</title><sodipodi:namedview
     id="namedview7"
     pagecolor="#ffffff"
     bordercolor="#000000"
     borderopacity="0.25"
     inkscape:showpageshadow="2"
     inkscape:pageopacity="0.0"
     inkscape:pagecheckerboard="0"
     inkscape:deskcolor="#d1d1d1"
     inkscape:document-units="mm"
     showgrid="false"
     inkscape:zoom="0.74564394"
     inkscape:cx="155.57023"
     inkscape:cy="297.72924"
     inkscape:window-width="1920"
     inkscape:window-height="1017"
     inkscape:window-x="1912"
     inkscape:window-y="-8"
     inkscape:window-maximized="1"
     inkscape:current-layer="layer1" /><defs
     id="defs2" /><g
     inkscape:label="Lager 1"
     inkscape:groupmode="layer"
     id="layer1"
     transform="translate(-63.764806,-70.050508)"><path
       style="fill:#000000;stroke-width:0.0658777"
       d="m 139.20291,126.44171 c -1.62447,-0.13161 -2.32866,-0.26957 -3.24275,-0.6353 -0.92733,-0.37101 -1.9191,-0.85078 -2.33498,-1.12953 -1.48042,-0.99228 -2.07655,-1.48077 -3.04605,-2.496 -2.29381,-2.40204 -3.72273,-5.45047 -4.28841,-9.14887 -0.11647,-0.76148 -0.0824,-0.73837 -0.57237,-0.38877 -0.63728,0.45476 -1.57668,0.99579 -1.93649,1.11531 -0.26427,0.0878 -0.32847,0.14222 -0.39096,0.33155 -0.0727,0.2202 -0.0852,0.2269 -0.44845,0.23974 -0.20553,0.007 -0.48929,0.006 -0.63058,-0.002 -0.14129,-0.009 -0.46738,0.0291 -0.72465,0.0836 -0.84608,0.1792 -1.70147,0.24405 -2.97113,0.22524 -0.68842,-0.0102 -1.28873,0.004 -1.33402,0.0324 -0.0453,0.028 -0.0824,0.0925 -0.0824,0.14325 0,0.11619 4.065,3.65494 4.19846,3.65494 0.0759,0 0.0888,-0.0505 0.0565,-0.22246 -0.0369,-0.19671 -0.0146,-0.24627 0.1926,-0.4282 0.26831,-0.23559 0.31219,-0.24572 0.4331,-0.10003 0.0758,0.0913 0.0571,0.13071 -0.13684,0.28903 l -0.22459,0.1833 -0.008,0.632 -0.008,0.63202 0.54668,1.17058 c 0.30068,0.64383 0.5697,1.16975 0.59782,1.16871 0.0281,-0.001 0.31168,-0.0431 0.63013,-0.0934 0.60384,-0.0954 1.03161,-0.051 1.08515,0.11248 0.0412,0.12567 -0.73882,0.4604 -1.26619,0.54338 -0.39971,0.0629 -0.89242,0.0422 -1.03776,-0.0435 -0.0258,-0.0152 -0.0191,-0.10072 0.0148,-0.19 0.034,-0.0893 0.0434,-0.25402 0.021,-0.36608 -0.0377,-0.18863 -0.0559,-0.2004 -0.2454,-0.15862 -0.11256,0.0248 -0.40146,0.0595 -0.64201,0.0771 -0.40031,0.0292 -0.44634,0.0191 -0.54349,-0.11959 -0.14822,-0.21162 -0.13454,-0.59536 0.0286,-0.8028 0.11042,-0.14037 0.17114,-0.16405 0.33606,-0.13107 0.47405,0.0948 0.40625,-0.45949 -0.19887,-1.62582 -0.0282,-0.0543 -0.60909,-0.58055 -1.29088,-1.16933 -0.84569,-0.73032 -1.28898,-1.07052 -1.39496,-1.07052 -0.0854,0 -0.15905,0.0297 -0.16358,0.0659 -0.0176,0.14082 -0.0361,0.17104 -0.22498,0.36813 l -0.19499,0.20345 v -0.19973 c 0,-0.15823 -0.0342,-0.20818 -0.1647,-0.2405 -0.11803,-0.0292 -0.16305,-0.0831 -0.15888,-0.19034 0.004,-0.0892 -0.0573,-0.19096 -0.15067,-0.2521 -0.1456,-0.0954 -0.16722,-0.0925 -0.31059,0.0422 l -0.15409,0.14477 -0.41989,-0.26288 c -0.23093,-0.14458 -0.46744,-0.30504 -0.52557,-0.35656 -0.0936,-0.083 -0.17281,-0.0374 -0.69172,0.39749 -0.32231,0.27014 -0.67814,0.53126 -0.79072,0.58025 -0.17674,0.0769 -0.64907,0.0583 -3.45859,-0.13626 -3.20581,-0.22201 -7.26366,-0.54381 -7.55159,-0.59888 -0.2279,-0.0436 -0.34836,-0.29371 -0.50902,-1.057 -0.0926,-0.4397 -0.18844,-0.73226 -0.25628,-0.78187 -0.0596,-0.0436 -0.10841,-0.10978 -0.10841,-0.14707 0,-0.0404 -0.32643,-0.0858 -0.807,-0.11228 -2.408652,-0.13274 -3.005202,-0.37163 -2.930522,-1.1735 l 0.0293,-0.31407 -0.29527,-0.13061 c -0.16239,-0.0718 -0.37091,-0.13061 -0.46337,-0.13061 -0.23046,0 -0.54318,-0.10795 -1.17567,-0.40584 -0.29538,-0.13911 -0.6084,-0.25294 -0.6956,-0.25294 -0.0872,0 -0.21608,-0.0435 -0.28641,-0.0967 -0.0703,-0.0532 -0.16948,-0.0977 -0.22033,-0.0988 -0.0508,-0.001 -0.74429,-0.29854 -1.54101,-0.66087 -0.79672,-0.36233 -1.47474,-0.65878 -1.50673,-0.65878 -0.0788,0 -0.14729,0.19225 -0.49315,1.38344 -0.24899,0.85756 -0.41709,1.26403 -1.04952,2.53786 -0.45789,0.92226 -0.87626,1.67107 -1.06741,1.91046 -0.17289,0.21653 -0.49135,0.64234 -0.70769,0.94623 -0.48056,0.67508 -1.96043,2.14861 -2.76325,2.75142 -0.69375,0.52092 -1.96108,1.31213 -2.69031,1.67959 -0.90353,0.4553 -2.37142,0.91265 -3.99798,1.24566 -0.66405,0.13595 -0.7523,0.13857 -2.2069,0.0654 -2.58122,-0.12989 -2.80022,-0.15839 -3.77851,-0.49165 -2.6417,-0.89991 -4.70958,-2.29131 -6.4213,-4.32067 -1.00214,-1.18811 -2.15383,-3.14547 -2.63581,-4.47969 -0.35198,-0.97438 -0.81726,-2.9548 -0.93638,-3.98561 -0.13977,-1.20944 -0.13802,-3.10572 0.004,-4.21721 0.21893,-1.71478 0.75123,-3.78493 1.20242,-4.6763 0.0917,-0.18116 0.2641,-0.55683 0.38311,-0.834821 0.81217,-1.89713 2.24151,-3.86566 3.8739,-5.33525 0.94929,-0.85462 1.6006,-1.31989 2.74671,-1.96218 2.05965,-1.15423 3.5999,-1.57119 6.02312,-1.63052 1.71748,-0.042 2.28039,0.0246 4.08398,0.48362 1.02353,0.26049 1.31275,0.36508 2.10853,0.76254 1.15917,0.57896 1.42917,0.73266 1.86666,1.0626 0.29986,0.22615 0.36987,0.25359 0.47672,0.18685 0.0689,-0.043 0.16928,-0.0782 0.22308,-0.0782 0.0545,0 0.12363,-0.0948 0.15608,-0.2141 0.032,-0.11775 0.0931,-0.20639 0.13563,-0.19697 0.0426,0.009 0.16624,-0.0288 0.27486,-0.085 0.1801,-0.0931 0.21399,-0.0924 0.38516,0.009 0.16235,0.0959 0.20482,0.0985 0.31447,0.0191 0.17604,-0.12743 0.87761,-0.90194 0.87761,-0.96885 0,-0.0882 -1.04109,-1.07323 -1.61401,-1.52707 -1.56745,-1.24169 -3.26641,-2.09602 -4.60655,-2.31644 -0.28716,-0.0472 -0.55397,-0.12169 -0.5929,-0.16546 -0.0389,-0.0438 -0.34663,-0.14693 -0.68378,-0.22925 l -0.61301,-0.14966 -0.22591,-0.37189 c -0.19688,-0.32409 -0.27337,-0.39006 -0.59513,-0.51318 -0.20306,-0.0777 -0.40363,-0.14124 -0.44569,-0.14117 -0.10339,1.3e-4 -0.43882,0.54051 -0.43882,0.70691 0,0.16899 -0.12045,0.26899 -0.38861,0.32262 -0.17265,0.0345 -0.245,0.01 -0.3951,-0.13376 -0.1773,-0.16988 -0.20206,-0.17452 -0.70628,-0.13247 -0.50222,0.0419 -0.5308,0.0366 -0.73501,-0.13521 -0.24291,-0.20439 -0.26801,-0.3599 -0.0848,-0.52567 0.15153,-0.13713 0.52251,-0.0988 0.98419,0.10164 0.1586,0.0689 0.3695,0.12521 0.46867,0.12521 0.15165,0 0.19743,-0.0448 0.28807,-0.28219 0.0593,-0.1552 0.1066,-0.32566 0.10517,-0.37879 -0.003,-0.10909 -1.16347,-0.67215 -2.11288,-1.02513 -0.679,-0.25244 -0.9961,-0.46252 -1.15137,-0.76278 -0.12624,-0.24412 -0.0786,-0.58758 0.12027,-0.86685 0.12135,-0.17042 0.16507,-0.18738 0.40608,-0.15754 l 0.27008,0.0335 0.21748,-0.44156 c 0.52225,-1.06036 1.69128,-2.04746 2.97533,-2.51229 1.20004,-0.43442 2.27653,-0.55632 4.02081,-0.45531 0.67031,0.0388 1.37366,0.10062 1.563,0.13732 0.9164,0.17765 1.7705,0.93885 2.35657,2.10022 0.20915,0.41445 0.23272,0.43605 0.73397,0.67234 0.29456,0.13886 0.71672,0.27584 0.97902,0.31768 0.25363,0.0404 0.55008,0.11455 0.65878,0.16466 0.10869,0.0501 0.5089,0.12368 0.88934,0.16349 0.73776,0.0772 1.15884,0.16597 1.21452,0.25605 0.0188,0.0305 0.27627,0.0766 0.57205,0.10237 0.29577,0.0258 0.74851,0.10492 1.00608,0.17582 0.25757,0.0709 0.77868,0.17333 1.15802,0.22762 0.37934,0.0543 0.77669,0.14211 0.883,0.19515 0.10631,0.053 0.3592,0.0967 0.56197,0.0969 0.40243,5.2e-4 1.17341,0.11065 1.28615,0.18368 0.0389,0.0252 0.48572,0.0514 0.99298,0.0582 0.50726,0.007 1.15498,0.0218 1.43939,0.0332 l 0.517092,0.0209 0.26739,-0.46114 c 0.86487,-1.49162 2.05371,-2.94258 2.91793,-3.5613 1.24208,-0.88925 3.44191,-1.64532 5.64256,-1.93933 1.98235,-0.26484 3.53354,-0.40111 4.96043,-0.43576 0.79713,-0.0194 1.50861,-0.062 1.58107,-0.0949 0.0725,-0.0328 0.27767,-0.0677 0.456,-0.0775 0.43025,-0.0237 0.49806,-0.18256 0.0779,-0.18256 -0.29897,0 -0.30013,-8.7e-4 -0.22327,-0.16957 0.06,-0.13163 0.0588,-0.19913 -0.005,-0.30163 -0.0713,-0.11408 -0.0647,-0.13669 0.0479,-0.16614 0.10531,-0.0275 0.12387,-0.0742 0.0965,-0.24263 -0.0258,-0.15897 7.5e-4,-0.23967 0.1111,-0.33953 0.13257,-0.11981 0.23852,-0.13088 1.24129,-0.12964 1.08063,0.001 1.10388,0.004 1.62335,0.21368 0.58796,0.23688 1.3036,0.74228 1.44825,1.02278 0.0898,0.17419 0.0863,0.18698 -0.0674,0.24541 -0.11961,0.0455 -0.16214,0.1106 -0.16214,0.24832 0,0.3051 0.12032,0.3832 0.72466,0.47038 0.30798,0.0444 0.77505,0.1525 1.03792,0.24016 0.46687,0.15569 0.48083,0.15654 0.60114,0.0362 0.0677,-0.0677 0.15145,-0.2084 0.18602,-0.31257 0.0783,-0.23603 0.31939,-0.36654 0.57946,-0.3137 0.24645,0.0501 0.41472,0.19414 0.44099,0.37755 0.0111,0.0774 0.072,0.15056 0.13544,0.16265 0.15111,0.0288 0.15284,-0.3168 0.008,-1.58326 l -0.10735,-0.93826 -1.28599,-1.68112 c -0.70729,-0.92461 -1.30723,-1.70533 -1.33318,-1.73493 -0.0259,-0.0296 -0.13621,0.10381 -0.24501,0.29645 -0.41052,0.7269 -1.07401,1.30914 -1.59843,1.40269 -0.56759,0.10126 -1.10692,-0.35512 -1.25338,-1.06059 -0.14976,-0.72139 0.0965,-1.8559 0.55165,-2.54164 0.30571,-0.46058 0.87485,-1.001 1.19512,-1.13482 0.58693,-0.24523 1.13611,-0.0332 1.43851,0.55543 0.17529,0.34118 0.18398,0.39693 0.14903,0.95523 -0.0204,0.32609 -0.0449,0.67274 -0.0544,0.77032 -0.0144,0.14773 0.25772,0.49418 1.62612,2.07045 l 1.64338,1.89304 -0.0102,0.5976 c -0.01,0.56598 0.16296,1.94791 0.24335,1.94824 0.0206,7e-5 0.0279,-0.21838 0.0161,-0.48547 -0.0203,-0.46229 -0.014,-0.48729 0.13176,-0.52043 0.0842,-0.0191 0.52269,-0.14176 0.97439,-0.27248 0.74033,-0.21424 0.8711,-0.23351 1.32694,-0.1955 l 0.50566,0.0422 -0.0335,-0.29754 c -0.0286,-0.25367 0.003,-0.3679 0.21725,-0.77476 0.43819,-0.83389 1.32785,-1.60289 2.29683,-1.98533 0.73757,-0.29111 1.15483,-0.23518 1.32742,0.17791 0.054,0.12933 0.28446,0.49267 0.51204,0.80742 0.22758,0.31476 0.43092,0.63813 0.45187,0.71862 0.048,0.18431 -0.13359,0.82422 -0.25379,0.89451 -0.0496,0.029 -0.0901,0.0899 -0.0901,0.1353 0,0.0455 -0.10608,0.18479 -0.23572,0.30965 -0.12965,0.12486 -0.27636,0.32337 -0.32603,0.44113 -0.0497,0.11776 -0.13628,0.2141 -0.19249,0.2141 -0.0562,0 -0.10217,0.0445 -0.10217,0.0988 0,0.065 0.065,0.0988 0.18995,0.0988 0.13454,0 0.2,0.0384 0.2244,0.13175 0.0507,0.1939 0.2015,0.16223 0.57561,-0.12093 0.18362,-0.13898 0.50291,-0.32137 0.70952,-0.40531 0.20662,-0.0839 0.41273,-0.18138 0.45802,-0.21652 0.0979,-0.076 0.11138,-0.68083 0.0165,-0.73949 -0.13742,-0.0849 -0.054,-0.24777 0.30249,-0.59028 l 0.36837,-0.35403 -0.15427,-0.20913 c -0.13516,-0.18324 -0.15357,-0.27978 -0.14866,-0.77957 0.005,-0.48389 0.0381,-0.65039 0.2199,-1.09745 0.36721,-0.90312 0.93707,-1.95122 1.22333,-2.24999 0.23454,-0.24477 0.31273,-0.28631 0.53894,-0.28631 0.42888,0 0.51724,0.15324 0.50757,0.88016 -0.004,0.33115 -0.0522,0.75853 -0.10611,0.94974 -0.11053,0.39177 -0.0659,0.4662 0.18209,0.3037 0.15707,-0.10291 0.17891,-0.10332 0.27706,-0.005 0.13615,0.13616 0.0565,0.32787 -0.29948,0.72067 -0.13961,0.15405 -0.70113,0.84761 -1.24782,1.54123 -0.97592,1.23823 -0.99333,1.26598 -0.95815,1.52823 0.0398,0.29666 -0.0146,0.27126 0.87581,0.40912 0.82543,0.1278 1.3402,0.50154 1.62856,1.18239 0.0537,0.12682 0.16713,0.38355 0.25206,0.57052 0.24272,0.53441 0.36154,1.0556 0.40312,1.76814 0.0288,0.49298 0.0675,0.69194 0.15373,0.79054 0.0634,0.0725 0.14791,0.19512 0.18776,0.27258 0.0399,0.0774 0.62576,0.49989 1.30199,0.93876 0.90815,0.58937 1.28357,0.79793 1.4363,0.79793 0.46231,0 0.65812,0.39277 0.32602,0.654 -0.23242,0.18282 -0.34264,0.17233 -0.58088,-0.0553 -0.11042,-0.10551 -0.53785,-0.37497 -0.94984,-0.59881 -0.89801,-0.48788 -1.37776,-0.79002 -1.69067,-1.06476 -0.128,-0.11239 -0.24038,-0.19299 -0.24973,-0.1791 -0.009,0.0139 -0.0857,0.24757 -0.16979,0.51932 -0.42079,1.36077 -1.29546,2.43413 -1.98708,2.43848 -0.33603,0.002 -0.35924,0.0879 -0.13149,0.48599 0.18099,0.31634 0.23907,0.36942 0.40416,0.36942 0.2091,0 0.45631,0.19982 0.45631,0.36883 0,0.0579 -0.0889,0.1884 -0.19763,0.28994 -0.1087,0.10154 -0.19764,0.23337 -0.19764,0.29294 0,0.0596 -0.0755,0.18384 -0.16783,0.27615 l -0.16782,0.16783 0.89596,2.41488 c 0.94706,2.55262 0.97841,2.61256 1.45858,2.78861 0.11469,0.0421 0.24708,0.15809 0.29645,0.25984 l 0.0892,0.18387 1.84458,0.029 c 1.89428,0.0298 2.77932,0.11927 3.57435,0.36132 0.52481,0.15977 0.52689,0.28466 0.008,0.48278 -0.22558,0.0861 -0.42091,0.18891 -0.43406,0.22838 -0.0137,0.0412 0.10286,0.0891 0.27349,0.11252 0.16357,0.0224 0.34992,0.0683 0.41412,0.10193 0.0642,0.0337 0.25013,0.0966 0.41318,0.13997 0.16305,0.0433 0.56326,0.18166 0.88935,0.30738 1.72967,0.66682 1.96219,0.77191 2.16355,0.97788 0.11443,0.11705 0.41695,0.31763 0.67225,0.44573 0.25531,0.1281 0.62588,0.35881 0.82348,0.51269 0.31684,0.24674 0.5285,0.43218 1.42493,1.24842 0.57142,0.5203 1.49521,1.661261 2.1593,2.666891 0.40676,0.61596 0.78603,1.20886 0.84283,1.31756 0.2223,0.42539 0.84011,1.83751 0.84011,1.92022 0,0.0295 0.0576,0.20236 0.12802,0.38423 0.21534,0.5562 0.59974,1.89745 0.66236,2.31111 0.0326,0.21513 0.11173,0.67278 0.17593,1.01699 0.16966,0.90974 0.17151,3.96452 0.003,4.9079 -0.36211,2.02695 -0.79445,3.43769 -1.59694,5.21092 -0.62364,1.378 -2.46147,3.78459 -3.71312,4.8622 -0.35511,0.30575 -0.74657,0.60223 -0.86991,0.65886 -0.12334,0.0566 -0.53552,0.29776 -0.91597,0.53586 -1.55909,0.97576 -3.0083,1.55833 -4.84202,1.94643 -0.89949,0.19038 -1.99654,0.20882 -3.78797,0.0637 z m 1.57725,-5.38907 c 0.16583,-0.15337 0.26694,-0.413 0.6588,-1.69188 0.25461,-0.83089 0.44984,-1.52379 0.43386,-1.53976 -0.016,-0.016 -0.2008,-0.0415 -0.41072,-0.0567 -0.20992,-0.0152 -0.54472,-0.0645 -0.744,-0.10956 -0.29481,-0.0666 -0.44824,-0.0652 -0.82347,0.008 -0.66663,0.12964 -1.97329,0.0715 -2.5541,-0.1136 -0.24531,-0.0782 -0.47506,-0.1242 -0.51056,-0.10226 -0.0385,0.0238 -0.0645,0.54639 -0.0645,1.29419 0,1.51563 0.0361,1.63574 0.56367,1.87729 0.61165,0.28002 2.11405,0.59455 2.91035,0.60928 0.28971,0.005 0.37613,-0.0226 0.54071,-0.17478 z m 3.3834,-0.72125 c 1.29108,-0.6604 2.4932,-1.70332 3.2491,-2.81881 0.26813,-0.39568 0.30479,-0.80805 0.0909,-1.02198 -0.11834,-0.11834 -0.21959,-0.13176 -0.99416,-0.13176 h -0.86242 l -0.27398,0.2368 c -0.15069,0.13023 -0.55561,0.37274 -0.89982,0.53889 l -0.62584,0.30209 -0.44468,1.22395 c -0.44585,1.2272 -0.52653,1.6384 -0.37648,1.91878 0.11014,0.20579 0.35447,0.15253 1.13742,-0.24796 z m -9.24365,-1.40281 c 0.22713,-0.12155 0.29783,-0.49954 0.29036,-1.55244 l -0.007,-0.99199 -0.3746,-0.35428 c -0.47896,-0.45298 -0.93084,-1.06454 -1.33427,-1.80574 -0.29254,-0.53747 -0.34962,-0.60217 -0.6816,-0.77264 -0.46798,-0.24031 -0.73701,-0.2448 -0.91751,-0.0153 -0.18628,0.23682 -0.17295,0.41831 0.0867,1.18045 0.46367,1.36101 0.98832,2.29551 2.00144,3.56494 0.45067,0.56468 0.68064,0.79953 0.79357,0.8104 0.0114,0.001 0.0758,-0.0274 0.14296,-0.0634 z m 3.41401,-2.137 c 0.0151,-0.23327 -0.001,-0.30727 -0.0642,-0.28637 -0.0935,0.0312 -0.19984,0.42918 -0.15152,0.5673 0.0661,0.18903 0.19625,0.0195 0.2157,-0.28093 z m -60.599452,-0.0824 c 0.1897,-0.21417 0.34655,-0.5752 0.8135,-1.87244 0.31817,-0.88392 0.57756,-1.65334 0.57643,-1.70982 -0.001,-0.0565 -0.0441,-0.16024 -0.0956,-0.23057 -0.0862,-0.11786 -0.18293,-0.1281 -1.23521,-0.13074 -1.0511,-0.003 -1.17834,-0.0161 -1.60348,-0.16927 -0.25398,-0.0915 -0.71555,-0.31629 -1.0257,-0.49948 -0.83584,-0.49369 -0.82519,-0.49322 -0.87031,-0.0381 -0.0207,0.20916 -0.11373,0.92872 -0.20667,1.59903 -0.19642,1.41672 -0.20949,1.87364 -0.064,2.23725 0.13128,0.32811 0.34166,0.45925 1.14777,0.71543 0.91529,0.2909 1.49533,0.40573 1.9374,0.38358 0.36336,-0.0182 0.40736,-0.0382 0.62584,-0.2849 z m 3.10157,-0.219 c 1.23677,-0.54281 2.68905,-1.54566 3.37536,-2.33078 0.38047,-0.43524 0.44468,-0.54457 0.44468,-0.75716 0,-0.5141 -0.30599,-0.61959 -2.02985,-0.69983 -0.83054,-0.0387 -0.91819,-0.0315 -1.11044,0.0901 -0.22054,0.13961 -0.53154,0.63185 -1.03585,1.63952 -0.62749,1.25379 -0.83037,1.96646 -0.61977,2.17707 0.13355,0.13354 0.50324,0.0885 0.97587,-0.11897 z m 36.787262,-0.0442 c 0.024,-0.0625 -0.002,-0.15448 -0.0588,-0.21175 -0.0911,-0.0911 -0.11252,-0.09 -0.21352,0.011 -0.1058,0.1058 -0.10485,0.11791 0.0165,0.20966 0.16684,0.12616 0.20454,0.12484 0.25589,-0.009 z m 19.72461,-0.27593 c 0.10159,-0.33911 0.0962,-0.46998 -0.0194,-0.46998 -0.0924,0 -0.23253,0.36607 -0.23331,0.60937 -7.4e-4,0.21442 0.1759,0.11702 0.25272,-0.13939 z m 3.0408,-0.27234 c 0,-0.0725 -0.0296,-0.13176 -0.0659,-0.13176 -0.0362,0 -0.0659,0.0593 -0.0659,0.13176 0,0.0725 0.0296,0.13175 0.0659,0.13175 0.0362,0 0.0659,-0.0593 0.0659,-0.13175 z m -23.18899,-0.26455 c -0.27879,-0.21274 -0.58508,-0.35813 -0.63961,-0.30361 -0.0285,0.0285 0.007,0.0929 0.0798,0.14309 0.0724,0.0502 0.16746,0.12184 0.21122,0.15931 0.0438,0.0375 0.11046,0.0681 0.14822,0.0681 0.0378,0 0.0687,0.0314 0.0687,0.0698 0,0.0384 0.0296,0.0514 0.0659,0.0291 0.0362,-0.0224 0.0659,-0.003 0.0659,0.0422 0,0.0665 0.0163,0.0666 0.0824,0 0.0659,-0.0661 0.0495,-0.10768 -0.0824,-0.20828 z m 31.47582,-0.76091 c 0.081,-0.0567 0.20619,-0.21862 0.27818,-0.35972 0.15851,-0.3107 0.47601,-1.53601 0.44766,-1.7276 -0.0142,-0.0962 -0.10968,-0.16871 -0.3182,-0.24164 -0.39736,-0.13897 -0.45974,-0.18616 -0.45974,-0.34785 0,-0.12611 0.0277,-0.13414 0.34586,-0.10035 0.19022,0.0202 0.3936,0.0556 0.45195,0.0786 0.14196,0.056 0.1887,-0.24059 0.18963,-1.20364 7.5e-4,-0.83902 -0.0584,-1.0208 -0.42352,-1.29926 -0.22046,-0.16816 -0.8118,-0.42668 -0.97636,-0.42685 -0.0627,-6e-5 -0.0769,0.27553 -0.061,1.18664 0.0159,0.91566 -0.005,1.31026 -0.0897,1.72761 -0.15372,0.75366 -0.51956,1.77829 -0.82567,2.31244 -0.14198,0.24776 -0.25814,0.46268 -0.25814,0.47762 0,0.0149 0.34914,0.0272 0.77587,0.0272 0.5976,0 0.80972,-0.0237 0.92317,-0.10317 z m -2.48958,-0.60916 c 0,-0.15126 -0.36077,-0.50257 -0.45579,-0.44384 -0.12608,0.0779 -0.0761,0.28638 0.10235,0.42673 0.21397,0.16831 0.35344,0.17506 0.35344,0.0171 z m -73.815762,-0.42406 c 0.0597,-0.19787 0.12145,-0.73345 0.14443,-1.25168 0.0412,-0.93009 0.0341,-0.96081 -0.21064,-0.90692 -0.0362,0.008 -0.19689,0.0337 -0.357,0.0573 -0.2306,0.0339 -0.31321,0.0826 -0.39739,0.2345 -0.1204,0.21722 -0.30251,0.35428 -0.37476,0.28204 -0.0267,-0.0267 -0.0525,-0.15902 -0.0573,-0.29412 -0.005,-0.13511 -0.0338,-0.30181 -0.0642,-0.37046 -0.0396,-0.0894 -0.022,-0.14921 0.0623,-0.21081 0.1089,-0.0796 0.10456,-0.0893 -0.0587,-0.13025 -0.15593,-0.0391 -0.17398,-0.0718 -0.15632,-0.28327 0.0183,-0.21868 0.0368,-0.23855 0.2176,-0.23351 0.1087,0.003 0.24597,0.0271 0.30504,0.0534 0.15716,0.0701 0.45256,-0.48314 0.45256,-0.84757 0,-0.33512 -0.013,-0.34736 -0.93696,-0.8796 -0.92599,-0.53345 -1.1128,-0.52945 -1.23818,0.0265 -0.0933,0.41356 0.37178,2.09407 0.83376,3.01289 0.45947,0.91382 1.37206,2.08744 1.62317,2.08744 0.0736,0 0.14185,-0.11104 0.21263,-0.34585 z m 74.726032,-0.4982 c 0.0273,-0.18537 -0.42022,-0.42923 -0.5128,-0.27943 -0.0794,0.12842 -0.014,0.25617 0.18678,0.36508 0.21656,0.11748 0.2993,0.0957 0.32602,-0.0857 z m 0.38517,-1.23553 c 0.0559,-0.14556 -0.0589,-0.23634 -0.31415,-0.24858 -0.16632,-0.008 -0.22501,0.0193 -0.24426,0.11336 -0.0139,0.0681 0.0146,0.1492 0.0635,0.18016 0.14841,0.094 0.45217,0.0665 0.49492,-0.0449 z m -23.64486,-0.23503 c 0.63002,-0.34778 1.39104,-0.92486 1.89087,-1.43385 l 0.39178,-0.39896 0.0429,-0.64375 c 0.0236,-0.35406 0.0972,-1.05049 0.1637,-1.54761 0.11763,-0.87995 0.11759,-0.90745 -0.002,-1.0392 -0.20446,-0.22592 -0.91073,-0.53962 -1.16104,-0.5157 -0.19979,0.0191 -0.22073,0.04 -0.20357,0.2035 0.0123,0.11668 -0.0173,0.19621 -0.0823,0.22115 -0.0558,0.0214 -0.10148,0.0634 -0.10148,0.0933 0,0.088 -0.79686,0.86974 -1.12958,1.10815 -0.23982,0.17183 -0.32058,0.27863 -0.37285,0.49304 -0.37759,1.54895 -0.56384,2.0479 -0.92593,2.4806 l -0.19296,0.23058 -0.80101,-0.018 c -0.57088,-0.0128 -0.89805,0.0109 -1.13877,0.0824 -0.18577,0.0552 -0.4478,0.10031 -0.58227,0.10031 -0.2485,0 -0.32449,0.0766 -0.32449,0.32709 0,0.17331 0.19303,0.20083 1.7787,0.25359 0.77901,0.0259 1.46085,0.0753 1.5152,0.10971 0.0816,0.0517 0.31049,0.10452 0.6836,0.15777 0.0318,0.005 0.27983,-0.11433 0.55124,-0.26415 z m 8.81812,-0.89693 c -0.004,-0.57067 0.0172,-1.29697 0.0463,-1.614 l 0.0528,-0.57644 h -0.38982 c -0.29708,0 -0.43194,-0.0331 -0.56687,-0.13926 -0.0974,-0.0766 -0.19444,-0.12187 -0.2157,-0.10061 -0.11284,0.11284 -0.23203,0.83505 -0.26506,1.606 -0.0368,0.85961 -0.0349,0.87576 0.13519,1.13278 0.12758,0.19278 0.29742,0.32149 0.65162,0.49382 0.26349,0.1282 0.49686,0.23358 0.5186,0.23419 0.0217,5e-4 0.0366,-0.46581 0.0329,-1.03648 z m 1.12847,0.86332 c 0.11367,-0.15545 -0.004,-0.27651 -0.22966,-0.23589 -0.23922,0.0431 -0.34544,0.13383 -0.34544,0.29508 0,0.11608 0.0303,0.12739 0.24682,0.0922 0.13576,-0.022 0.28348,-0.0902 0.32828,-0.15144 z m -48.071862,-0.33098 c 0.22682,-0.13399 0.27521,-0.22365 0.52731,-0.97701 0.10911,-0.3261 0.25412,-0.63737 0.32223,-0.69172 0.16232,-0.12953 0.55681,-1.94211 0.44222,-2.03188 -0.0408,-0.032 -0.53367,-0.26008 -1.09527,-0.50694 -1.35152,-0.59406 -1.83436,-0.64576 -1.91984,-0.20554 -0.0151,0.0778 -0.14181,0.16207 -0.35295,0.23485 l -0.32939,0.11353 -0.0708,0.39099 c -0.13145,0.72591 -0.68275,1.95306 -1.15506,2.57103 -0.28327,0.37064 -0.32431,0.61772 -0.13418,0.80786 0.14144,0.14144 0.79337,0.25697 1.88705,0.33442 1.26839,0.0898 1.67407,0.0813 1.87867,-0.0396 z m 14.887242,-0.34729 c 0,-0.0703 0.0296,-0.14619 0.0659,-0.16858 0.0362,-0.0224 0.0659,-0.0834 0.0659,-0.13564 0,-0.0766 -0.13337,-0.0949 -0.69172,-0.0949 -0.380452,0 -0.691722,0.0229 -0.691722,0.0509 0,0.11084 0.825682,0.45205 1.136392,0.46961 0.0724,0.004 0.11529,-0.041 0.11529,-0.12136 z m 46.51407,-0.26971 c 0.0701,-0.0375 0.12743,-0.12645 0.12743,-0.19764 0,-0.10902 -0.0457,-0.12944 -0.2894,-0.12944 -0.2065,0 -0.30119,0.0307 -0.33053,0.10717 -0.0889,0.23163 0.21612,0.36782 0.4925,0.21991 z m -13.00576,-0.29497 c 0.0617,-0.16076 -0.10786,-0.3045 -0.33322,-0.28251 -0.16676,0.0163 -0.20698,0.0523 -0.22409,0.20099 -0.0197,0.17156 -0.006,0.18117 0.24912,0.18117 0.18019,0 0.28266,-0.0331 0.30819,-0.0996 z m 13.18924,-1.02672 c 0.27541,-0.096 0.29116,-0.32294 0.0224,-0.32294 -0.24302,0 -0.44145,0.14685 -0.38769,0.28692 0.0491,0.12786 0.0902,0.13192 0.36527,0.036 z m -13.42925,-0.28612 c 0,-0.12053 -0.0436,-0.14607 -0.34636,-0.20287 -0.21614,-0.0405 -0.24654,-0.0305 -0.24654,0.0819 0,0.18162 0.0541,0.21594 0.34037,0.21594 0.17595,0 0.25253,-0.0288 0.25253,-0.0949 z m -34.961962,-0.11282 c -0.12121,-0.1212 -0.20836,-0.13993 -0.59823,-0.12854 -0.251,0.007 -0.54208,0.0377 -0.64683,0.0674 l -0.19048,0.0541 0.19764,0.0472 c 0.10869,0.026 0.22727,0.0571 0.26351,0.0692 0.0362,0.0121 0.30221,0.0243 0.59107,0.0272 l 0.52519,0.005 z m -0.58852,-0.31667 c 0.0313,-0.0312 -0.005,-0.089 -0.0808,-0.12976 -0.17848,-0.0955 -0.29673,-0.31706 -0.30135,-0.56456 -0.003,-0.18294 -0.0257,-0.20094 -0.30013,-0.24216 -0.16305,-0.0245 -0.43588,-0.0467 -0.60629,-0.0494 -0.30658,-0.005 -0.31126,-0.002 -0.44467,0.29994 -0.0742,0.16765 -0.13442,0.33811 -0.13389,0.3788 4.9e-4,0.0407 0.14133,0.15578 0.31292,0.25578 0.29548,0.1722 0.3433,0.17985 0.90487,0.14472 0.32609,-0.0204 0.61831,-0.0624 0.64938,-0.0934 z m -2.02241,-0.68833 c 0.13085,-0.27437 0.0815,-0.43094 -0.1401,-0.44407 -0.0917,-0.005 -0.20168,-0.0129 -0.24437,-0.0165 -0.0427,-0.004 -0.10112,0.0813 -0.12986,0.18881 -0.0415,0.15534 -0.0233,0.22625 0.0891,0.34586 0.19463,0.20717 0.29985,0.18883 0.42524,-0.0741 z m -24.65946,-0.45066 c -0.0222,-0.11776 -0.11376,-0.27475 -0.20341,-0.34887 -0.24212,-0.20017 -0.17545,-0.36668 0.18122,-0.4526 l 0.29645,-0.0714 0.0435,-0.7021 c 0.0732,-1.1813 0.59585,-2.45171 1.41933,-3.45004 l 0.34703,-0.42073 -0.21322,-0.0349 c -0.11727,-0.0192 -0.3911,-0.0639 -0.60849,-0.0992 -0.2174,-0.0354 -0.72639,-0.0728 -1.13109,-0.0832 -0.66044,-0.017 -0.75492,-0.005 -0.92229,0.1189 -0.28692,0.21205 -0.44528,0.48849 -0.71746,1.25244 -0.28249,0.79287 -0.27795,0.81041 0.24619,0.95155 0.52261,0.14072 0.37915,0.39347 -0.15354,0.27051 -0.20841,-0.0481 -0.36627,-0.0553 -0.40313,-0.0185 -0.0865,0.0865 -0.24201,0.95216 -0.26172,1.4571 -0.0275,0.70524 0.0138,0.75436 1.12132,1.3344 0.53352,0.27941 0.97671,0.50863 0.98486,0.50938 0.008,7.4e-4 -0.003,-0.095 -0.0256,-0.21274 z m 77.415502,0.0197 c 0.13735,-0.2656 0.12909,-0.3565 -0.0905,-0.99555 -0.36693,-1.06801 -0.96994,-2.22342 -1.54504,-2.96039 -0.45239,-0.57973 -1.3625,-1.51519 -1.47412,-1.51519 -0.0498,0 -0.14029,0.11117 -0.20116,0.24704 -0.0892,0.19908 -0.11078,0.45935 -0.11124,1.34057 l -7.5e-4,1.09352 0.48301,0.5172 c 0.54899,0.58785 0.98241,1.17361 1.19819,1.61935 0.13152,0.27168 0.1947,0.32436 0.57762,0.48161 0.23647,0.0971 0.49087,0.21924 0.56532,0.27139 0.23198,0.16249 0.48468,0.12045 0.59844,-0.0995 z m -5.50555,-2.45058 c 0.1067,-0.3061 0.0927,-0.4649 -0.0388,-0.43957 -0.0624,0.012 -0.13637,0.11881 -0.16867,0.24343 -0.10306,0.39775 0.0776,0.56858 0.20747,0.19614 z m -16.19552,-1.08244 c 0.16524,-0.43188 0.35052,-0.88012 0.41174,-0.99608 0.0612,-0.11596 0.1113,-0.24195 0.1113,-0.27998 0,-0.0425 -0.2036,-0.0692 -0.5291,-0.0692 -0.4247,0 -0.53708,-0.0208 -0.56962,-0.10563 -0.13749,-0.35831 1.42173,-2.796251 2.83964,-4.439941 l 0.36938,-0.4282 -0.17715,-0.13176 c -0.0974,-0.0725 -0.41649,-0.30963 -0.70899,-0.52702 -0.29251,-0.2174 -0.81708,-0.6769 -1.16572,-1.02111 -0.71028,-0.70127 -1.05571,-1.2868 -1.19666,-2.02845 -0.0427,-0.22497 -0.0982,-0.40903 -0.12313,-0.40903 -0.025,0 -0.12288,0.23268 -0.21758,0.51706 -0.0947,0.28438 -0.24537,0.61624 -0.33481,0.73746 -0.12511,0.16959 -0.1626,0.30157 -0.1626,0.57255 0,0.21228 -0.0488,0.44923 -0.12281,0.59657 -0.0675,0.13443 -0.16003,0.40746 -0.20553,0.60674 -0.21959,0.96191 -0.63804,2.32463 -1.06202,3.458591 -0.2574,0.68842 -0.52676,1.43558 -0.59858,1.66036 l -0.13057,0.40869 0.40728,0.48066 c 0.54998,0.64907 0.66453,0.77328 0.95212,1.03236 0.22055,0.19869 0.23904,0.23926 0.17405,0.3819 -0.0951,0.20866 -0.0931,0.2188 0.0426,0.22191 0.0634,0.002 0.44138,0.13133 0.83994,0.28861 0.39856,0.15727 0.7543,0.2797 0.79053,0.27205 0.0362,-0.008 0.20108,-0.36727 0.36632,-0.79916 z m 15.2017,0.14843 c 0.0148,-0.12479 -0.009,-0.17608 -0.0823,-0.17608 -0.0714,0 -0.10319,0.0627 -0.10319,0.20312 0,0.25205 0.15517,0.22943 0.18553,-0.027 z m 1.42285,-1.61992 c 0.0663,-1.68078 -0.005,-1.86636 -0.8421,-2.20162 -0.58341,-0.23355 -1.33454,-0.37493 -2.23208,-0.42011 -0.73169,-0.0368 -0.77379,-0.0321 -0.76929,0.0864 0.003,0.0689 0.27719,0.85165 0.61015,1.73935 l 0.60537,1.61401 0.72388,0.0457 c 0.39814,0.0252 0.9314,0.10266 1.18503,0.17224 0.73821,0.20251 0.66604,0.30649 0.71904,-1.03597 z m -6.94321,0.18905 c 0.0457,-0.11041 0.1612,-0.2411 0.2566,-0.29043 0.1322,-0.0684 0.20958,-0.20186 0.32532,-0.56125 0.0835,-0.25935 0.16811,-0.62886 0.18795,-0.82113 0.0307,-0.29742 0.0152,-0.37049 -0.10403,-0.48969 -0.0771,-0.0771 -0.16234,-0.1391 -0.18951,-0.13785 -0.0272,10e-4 -0.28657,0.12723 -0.57643,0.27998 l -0.52703,0.27772 -0.0207,0.32732 c -0.0161,0.25551 0.0344,0.46872 0.23046,0.9717 0.13811,0.35441 0.26981,0.64437 0.29265,0.64437 0.0228,0 0.0789,-0.0903 0.12468,-0.20074 z m -50.763242,-0.27098 c 0.0948,-0.0432 0.16779,-0.13134 0.16779,-0.20262 0,-0.19645 -0.75236,-1.61446 -1.11898,-2.10899 -0.32205,-0.434411 -0.46209,-0.540581 -0.46209,-0.350301 0,0.141741 -0.22376,0.184911 -0.53043,0.102331 -0.15037,-0.0405 -0.28742,-0.0596 -0.30455,-0.0425 -0.0171,0.0171 0.0155,0.12137 0.0725,0.23163 0.1407,0.2721 0.13061,0.45311 -0.0281,0.50348 -0.10479,0.0333 -0.13176,0.0997 -0.13176,0.32443 0,0.28237 5e-4,0.2829 0.51055,0.58756 0.28081,0.16771 0.76254,0.46645 1.07052,0.66386 0.30798,0.19741 0.56598,0.36087 0.57333,0.36324 0.007,0.002 0.0889,-0.0301 0.18117,-0.0722 z m 7.47976,-0.33528 c -2.5e-4,-0.15399 -0.0194,-0.48008 -0.0425,-0.72466 -0.0388,-0.41123 -0.0537,-0.44467 -0.19716,-0.44467 -0.15012,0 -0.15517,0.0172 -0.15517,0.53029 0,0.55824 0.11704,0.91902 0.29814,0.91902 0.0704,0 0.097,-0.077 0.0967,-0.27998 z m 0.50794,-0.35575 c 0.0651,-0.096 0.20447,-0.26042 0.30971,-0.36533 0.23709,-0.23635 0.18352,-0.29839 -0.30752,-0.3561 l -0.37791,-0.0444 v 0.47021 c 0,0.42255 0.0131,0.47022 0.12868,0.47022 0.0708,0 0.18195,-0.0786 0.24704,-0.17459 z m -12.03609,-0.61595 c 0,-0.0362 -0.0314,-0.0659 -0.0698,-0.0659 -0.0384,0 -0.0514,0.0296 -0.029,0.0659 0.0224,0.0362 0.0538,0.0659 0.0698,0.0659 0.016,0 0.029,-0.0296 0.029,-0.0659 z m -1.73504,-0.23477 c 0.0217,-0.0567 0.002,-0.18265 -0.0439,-0.27998 -0.0459,-0.0973 -0.0956,-0.31601 -0.11049,-0.48596 -0.0228,-0.25983 -0.006,-0.32046 0.10769,-0.381111 0.0741,-0.0397 0.13476,-0.11096 0.13476,-0.15842 0,-0.13753 0.21072,-0.28951 0.46744,-0.33712 0.19897,-0.0369 0.23246,-0.067 0.2093,-0.18821 -0.04,-0.20929 0.20904,-0.49084 0.47898,-0.54148 0.19571,-0.0367 0.22772,-0.0688 0.22772,-0.22832 0,-0.22598 0.1487,-0.38615 0.40633,-0.43767 0.69564,-0.13914 -0.83368,-0.91801 -2.44854,-1.24704 -0.66617,-0.13573 -0.85878,-0.1 -1.08932,0.20229 -0.3172,0.41587 -1.58963,3.515651 -1.51885,3.700091 0.0269,0.0701 0.21842,0.0909 0.84387,0.0917 0.81789,0.001 1.4755,0.10701 1.81831,0.29315 0.23351,0.12679 0.46763,0.12595 0.51667,-0.002 z m -5.44156,-0.2148 c 0.26001,-0.16489 0.36183,-0.31321 0.89488,-1.303561 0.73707,-1.36938 0.95903,-1.97768 0.84859,-2.32564 -0.0828,-0.26074 -0.25462,-0.28444 -0.73975,-0.102 -1.08476,0.40794 -2.42818,1.28506 -3.39029,2.21352 -0.46655,0.45024 -0.57965,0.59832 -0.61907,0.810581 -0.0577,0.31056 0.056,0.55602 0.31529,0.68067 0.096,0.0462 0.53964,0.10862 0.98577,0.13876 1.37927,0.0932 1.38065,0.0931 1.70458,-0.11233 z m 17.15568,-1.477361 c 0.21369,-1.66117 0.2109,-1.77181 -0.0628,-2.48688 -0.39947,-1.04385 -1.65174,-3.37481 -1.85496,-3.4528 -0.0619,-0.0238 -0.23261,0.0885 -0.45684,0.30061 -0.36135,0.34175 -0.43891,0.54042 -0.27562,0.70597 0.066,0.0669 0.0594,0.10044 -0.0331,0.16878 -0.0861,0.0636 -0.10497,0.13775 -0.0741,0.29186 0.0518,0.25907 -0.0606,0.40451 -0.31255,0.40451 -0.18697,0 -0.25162,0.0856 -0.12414,0.16442 0.0969,0.0599 1.1869,1.47315 1.2357,1.60222 0.0231,0.061 0.16541,0.30357 0.31633,0.53908 0.28576,0.44593 1.08354,1.97788 1.08354,2.08067 0,0.16863 0.24319,0.619861 0.33418,0.620081 0.0838,2e-4 0.12675,-0.17959 0.22437,-0.938521 z m -10.63786,0.751711 c 0,-0.0536 -0.28833,-0.209711 -0.3819,-0.206751 -0.0601,0.002 0.26747,0.258661 0.33249,0.260591 0.0272,7.4e-4 0.0494,-0.0234 0.0494,-0.0538 z m 16.37564,-0.866991 h 0.34153 l 0.0443,-0.77406 c 0.0957,-1.67168 0.28148,-3.11805 0.46849,-3.64808 l 0.0889,-0.25199 -0.24355,-0.0635 c -0.82464,-0.21497 -1.13089,-0.28226 -1.82341,-0.40065 -0.42455,-0.0726 -1.03447,-0.13197 -1.3554,-0.13197 h -0.58349 l 0.39083,0.74411 c 0.71831,1.36758 1.27689,2.861 1.58496,4.23752 l 0.14919,0.66663 0.29804,-0.18902 c 0.22938,-0.14547 0.37673,-0.18901 0.63958,-0.18901 z m -16.04625,0.11858 c 0,-0.15324 -0.0198,-0.19103 -0.0724,-0.13839 -0.0398,0.0398 -0.0527,0.1347 -0.0285,0.21081 0.0629,0.19819 0.10092,0.1709 0.10092,-0.0724 z m 18.149942,-0.66803 c 0.062,-0.10292 0.2037,-0.29077 0.31493,-0.41744 0.1891,-0.21538 0.22077,-0.22754 0.48804,-0.18746 0.25599,0.0384 0.30804,0.0223 0.49872,-0.15455 0.11709,-0.10857 0.27777,-0.25128 0.35705,-0.31713 0.1672,-0.13888 0.38946,-1.05186 0.62622,-2.57237 0.13053,-0.83828 0.13778,-1.00203 0.0686,-1.54812 -0.0825,-0.65102 -0.284,-1.32039 -0.56335,-1.87155 -0.3673,-0.72466 -0.53659,-0.73265 -0.85255,-0.0402 -0.25327,0.55504 -0.5759,1.5519 -0.5759,1.77941 0,0.0782 -0.0337,0.3685 -0.0748,0.64516 -0.0547,0.36786 -0.11667,0.54819 -0.23057,0.67109 -0.0857,0.0924 -0.155762,0.17423 -0.155762,0.18178 0,0.008 -0.0592,0.40008 -0.13159,0.8723 -0.18053,1.17783 -0.32816,2.53686 -0.32892,3.02791 l -7.5e-4,0.40871 0.22393,-0.1452 c 0.12316,-0.0798 0.27465,-0.22939 0.336642,-0.33231 z m 23.507,-0.35941 c 0.35429,-1.1226 0.54675,-1.98904 0.45449,-2.04606 -0.10151,-0.0627 -1.72876,-0.3605 -1.76609,-0.32317 -0.0157,0.0157 0.0313,0.20212 0.10432,0.41438 0.073,0.21225 0.28385,0.89154 0.46851,1.50953 0.18465,0.61798 0.34937,1.14632 0.36603,1.17409 0.0703,0.11719 0.16285,-0.0637 0.37274,-0.72877 z m 7.02689,-1.02214 c 0.17376,-0.15622 0.51027,-0.43044 0.7478,-0.60937 0.23752,-0.17892 0.43267,-0.35496 0.43366,-0.39119 9.9e-4,-0.0362 -0.11325,-0.376 -0.25385,-0.75502 -0.23649,-0.63753 -0.27218,-0.69466 -0.4764,-0.76278 -0.13364,-0.0446 -0.25939,-0.14958 -0.31864,-0.26609 -0.13332,-0.26212 -0.12513,-0.80092 0.0164,-1.07668 l 0.11568,-0.22546 -0.77468,-2.03117 c -0.49085,-1.28698 -0.81267,-2.0434 -0.87835,-2.06455 -0.057,-0.0183 -0.17196,-0.097 -0.25542,-0.17474 l -0.15173,-0.14137 -0.12227,0.15859 c -0.20214,0.26218 -1.1476,2.15198 -1.44712,2.89251 -0.33682,0.83277 -0.39945,1.41419 -0.23012,2.13644 0.11319,0.48278 0.40132,1.11107 0.67639,1.47489 0.29396,0.38881 2.35632,2.10252 2.54655,2.11605 0.0309,0.002 0.19837,-0.12383 0.37213,-0.28006 z m -28.00283,-0.79035 c -0.004,-0.21464 -0.0172,-0.24677 -0.0613,-0.14434 -0.08,0.1863 -0.08,0.51062 0,0.46115 0.0362,-0.0224 0.0638,-0.16496 0.0613,-0.31681 z m 1.1575,-0.30465 c 0.25362,-0.12441 0.76496,-0.33346 1.13629,-0.46456 0.64054,-0.22615 0.68519,-0.25421 0.87125,-0.54758 0.19198,-0.30273 0.67892,-0.82447 1.10518,-1.18418 0.11776,-0.0994 0.21411,-0.20885 0.21411,-0.24327 0,-0.0344 -0.13093,-0.13932 -0.29095,-0.2331 -0.16002,-0.0938 -0.36721,-0.27049 -0.46042,-0.39269 -0.21138,-0.27715 -0.5419,-0.39313 -0.94712,-0.33236 -1.01387,0.15204 -1.78495,1.09579 -2.08395,2.55064 -0.10929,0.53176 -0.13944,1.1328 -0.0549,1.09525 0.0272,-0.0121 0.25692,-0.12374 0.51056,-0.24815 z m 3.1814,-1.19605 c 0.71426,-0.24383 2.15905,-0.58703 2.47119,-0.58703 0.0957,0 0.23498,-0.10203 0.38629,-0.28305 0.13013,-0.15568 0.42545,-0.38542 0.65626,-0.51055 0.39476,-0.21401 0.45679,-0.22751 1.0455,-0.22751 0.42349,0 0.73711,0.0375 0.96998,0.11607 0.25156,0.0848 0.44208,0.10455 0.70819,0.0733 0.3204,-0.0376 0.36404,-0.0605 0.36404,-0.19036 0,-0.29222 -0.18474,-0.61159 -0.37736,-0.65237 -0.19209,-0.0407 -1.92017,-0.28011 -2.49597,-0.34585 -1.05547,-0.1205 -3.92769,1.59673 -4.59753,2.74875 -0.1234,0.21222 -0.1234,0.21495 0,0.16419 0.069,-0.0284 0.46025,-0.1659 0.86941,-0.30556 z m 17.49763,-0.10942 c 0.10046,-0.32884 0.49894,-2.08238 0.47798,-2.10335 -0.0134,-0.0134 -0.19461,0.0199 -0.40262,0.0741 -0.20801,0.0542 -0.68043,0.13364 -1.04981,0.17658 l -0.67162,0.0781 -0.27711,0.51134 c -0.17421,0.32144 -0.27713,0.59631 -0.27713,0.74011 0,0.2067 0.0206,0.23228 0.21411,0.2652 0.11775,0.02 0.51055,0.11008 0.87288,0.20009 0.81044,0.20132 1.06545,0.21458 1.11332,0.0579 z m 10.08823,-0.14559 c 0.32385,-0.14349 0.59805,-0.29913 0.60933,-0.34586 0.0113,-0.0467 0.0809,-0.27767 0.1548,-0.51318 l 0.13428,-0.42821 -0.91983,-2.40454 -0.91983,-2.40454 -0.27297,-0.0375 c -0.15013,-0.0206 -0.30796,-0.0725 -0.35072,-0.11529 -0.0427,-0.0428 -0.13419,-0.0777 -0.20318,-0.0777 -0.11684,0 -0.12234,0.0372 -0.0803,0.54349 0.0702,0.84466 0.28784,2.52985 0.40195,3.11273 0.0567,0.28986 0.20961,0.7571 0.3397,1.03831 0.21362,0.46179 0.22797,0.52727 0.14821,0.67631 -0.0758,0.14157 -0.0714,0.21867 0.0304,0.54275 0.17467,0.55566 0.22478,0.67419 0.28501,0.67419 0.0298,0 0.31921,-0.1174 0.64306,-0.26088 z m -31.55537,-0.29908 c 0.23399,-0.59243 0.52301,-1.04003 0.92692,-1.43555 0.32509,-0.31833 0.9967,-0.70548 1.22383,-0.70548 0.0699,0 0.14943,-0.0699 0.18449,-0.16209 l 0.0616,-0.1621 0.46803,0.20673 c 0.41717,0.18425 0.49135,0.19829 0.68255,0.12915 0.11798,-0.0427 0.32012,-0.0776 0.4492,-0.0776 0.17703,0 0.2429,-0.0315 0.26817,-0.12809 0.0378,-0.14462 0.0473,-0.14162 -0.94041,-0.29665 -0.34422,-0.054 -0.98159,-0.16984 -1.41638,-0.25736 -1.0198,-0.20529 -2.85321,-0.47225 -2.90278,-0.42268 -0.0211,0.0211 0.0657,0.19677 0.19278,0.3904 0.44598,0.67929 0.67162,1.68937 0.61971,2.77407 -0.0169,0.35382 -0.0238,0.63545 -0.0153,0.62583 0.008,-0.01 0.0974,-0.22498 0.19759,-0.47861 z m 9.43948,-0.29559 c 0.17173,-0.0497 0.16781,-0.0549 -0.15314,-0.20273 -0.47209,-0.21749 -1.06867,-0.20588 -1.58574,0.0308 -0.30462,0.13946 -0.36691,0.19164 -0.29039,0.24325 0.10717,0.0723 1.73007,0.0152 2.02927,-0.0714 z m 2.01221,-0.18897 c 0.1244,-0.13746 0.0862,-0.31038 -0.0893,-0.40431 -0.15053,-0.0806 -0.19854,-0.0249 -0.19854,0.23009 0,0.31813 0.10182,0.37976 0.28782,0.17422 z m 0.94666,0.0796 c 0.33786,-0.0406 0.34854,-0.0486 0.50598,-0.37823 0.0885,-0.18522 0.14067,-0.35528 0.11601,-0.3779 -0.0774,-0.071 -0.89682,-0.12451 -0.99101,-0.0648 -0.10114,0.0642 -0.34532,0.73319 -0.29646,0.81225 0.0381,0.0616 0.20596,0.0638 0.66548,0.009 z m 5.40999,-0.34542 c 0.11375,-0.21341 0.20682,-0.4061 0.20682,-0.42821 0,-0.0526 -0.96497,-0.0508 -1.53414,0.003 l -0.44715,0.0422 0.019,0.30316 0.019,0.30316 0.51913,0.0471 c 0.28552,0.0259 0.53501,0.0629 0.55442,0.0824 0.0194,0.0194 0.12998,0.0353 0.2457,0.0353 0.18941,0 0.23106,-0.0387 0.41723,-0.38802 z m -7.40207,0.12451 c 0,-0.1217 -0.21937,-0.16931 -0.31937,-0.0693 -0.0558,0.0558 -0.0499,0.0908 0.0235,0.13785 0.13472,0.0864 0.29589,0.0491 0.29589,-0.0685 z m 5.36904,-0.0628 c 0,-0.0708 -0.0344,-0.20417 -0.0765,-0.29645 -0.073,-0.16028 -0.10105,-0.1678 -0.62584,-0.1678 -0.44442,0 -0.54939,0.0189 -0.54939,0.0988 0,0.0615 0.0622,0.0988 0.1647,0.0988 0.13055,0 0.16469,0.0332 0.16469,0.16032 0,0.17326 0.0926,0.20569 0.64231,0.22507 0.23718,0.008 0.27998,-0.01 0.27998,-0.11878 z m -2.01961,-0.0696 c 0.0844,-0.0777 -0.15223,-0.39461 -0.29466,-0.39461 -0.11178,0 -0.38583,0.34154 -0.38648,0.48165 0,0.0636 0.60103,-0.0133 0.68114,-0.087 z m -2.06074,-0.30652 c 0.0973,-0.25596 -0.0188,-0.32683 -0.22397,-0.1367 -0.13023,0.1207 -0.15264,0.17674 -0.0941,0.23528 0.12575,0.12575 0.24708,0.0881 0.31808,-0.0986 z m -5.92637,-0.64133 c 0.99013,-0.47281 0.99646,-0.5052 0.11711,-0.59937 -0.41293,-0.0442 -0.43401,-0.0394 -0.54177,0.12509 -0.0617,0.0941 -0.16596,0.17111 -0.23177,0.17111 -0.14106,0 -0.27257,0.25577 -0.27257,0.53012 0,0.107 0.0104,0.19454 0.0232,0.19454 0.0127,0 0.42037,-0.18967 0.90582,-0.42149 z m 24.0387,-0.29982 c 0,-0.0344 -0.0579,-0.36791 -0.12863,-0.74113 -0.0708,-0.37323 -0.19076,-1.18256 -0.2667,-1.79852 -0.17661,-1.4324 -0.16014,-1.37805 -0.37489,-1.23734 -0.093,0.061 -0.29131,0.12844 -0.4406,0.14996 -0.16679,0.024 -0.26476,0.0707 -0.25413,0.12108 0.0546,0.25861 1.36038,3.56848 1.4078,3.56848 0.0314,0 0.0571,-0.0281 0.0571,-0.0625 z m -39.531992,-0.86378 c 0.0447,-0.20823 0.0487,-0.37601 0.0108,-0.44687 -0.0687,-0.12836 -0.71153,-0.35717 -0.76417,-0.272 -0.0408,0.0661 0.54626,1.05228 0.6264,1.05228 0.0305,0 0.0877,-0.15003 0.12699,-0.33341 z m 0.0665,-2.08007 c 0.1771,-0.0354 0.2063,-0.0677 0.1894,-0.2095 -0.0172,-0.14446 -0.0701,-0.17927 -0.38231,-0.25179 -0.19928,-0.0463 -0.57766,-0.0854 -0.84084,-0.0869 -0.26318,-0.001 -0.53605,-0.0387 -0.60637,-0.0826 -0.15822,-0.0988 -0.22592,-0.0406 -0.16735,0.14398 0.0394,0.12423 0.0769,0.13507 0.33374,0.0966 0.24616,-0.0369 0.33628,-0.0153 0.60391,0.145 0.27607,0.16534 0.48232,0.25881 0.61927,0.28065 0.0226,0.004 0.13539,-0.0123 0.25055,-0.0353 z m 39.164382,-3.28966 c 0.15349,-0.15349 0.12671,-0.34988 -0.0593,-0.43461 -0.0935,-0.0426 -0.19418,-0.1693 -0.23652,-0.29759 -0.053,-0.16049 -0.10453,-0.21449 -0.18307,-0.19173 -0.0601,0.0174 -0.37614,0.082 -0.70223,0.14351 -0.3261,0.0615 -0.62107,0.13733 -0.65549,0.1685 -0.13023,0.11791 0.082,0.18714 0.65778,0.21456 0.32483,0.0155 0.62567,0.0307 0.66851,0.0339 0.0429,0.003 0.0967,0.0649 0.1196,0.13717 0.0379,0.11939 0.20609,0.32978 0.26364,0.32978 0.013,0 0.0701,-0.0466 0.12705,-0.10353 z m -1.54342,-1.56426 c 0,-0.0115 0.031,-0.18836 0.0688,-0.3931 0.0581,-0.31442 0.0519,-0.3981 -0.0402,-0.53856 -0.13789,-0.21045 -0.20325,-0.16945 -0.25937,0.16267 -0.0249,0.14714 -0.10122,0.30325 -0.1729,0.35345 -0.11109,0.0778 -0.11775,0.11325 -0.0495,0.26315 0.0583,0.12785 0.12794,0.17323 0.26599,0.17323 0.10288,0 0.18706,-0.009 0.18706,-0.0208 z m 0.5929,-0.0414 c 0,-0.085 -0.31059,-0.44 -0.34903,-0.39894 -0.017,0.0181 -0.0515,0.12928 -0.0767,0.24704 -0.045,0.21022 -0.0416,0.2141 0.18993,0.2141 0.12969,0 0.23581,-0.028 0.23581,-0.0622 z m -1.27151,-1.84736 c 0.14114,-8.7e-4 0.14228,-0.007 0.0442,-0.24179 -0.0554,-0.1325 -0.12133,-0.36199 -0.14659,-0.50999 -0.0469,-0.27482 -0.23492,-0.41452 -0.25568,-0.18999 -0.006,0.0646 -0.0469,0.26848 -0.0909,0.45313 -0.0987,0.41393 -0.0484,0.58401 0.1567,0.52906 0.0811,-0.0217 0.21261,-0.0399 0.29229,-0.0404 z m -0.80401,-2.2795 c 0.10113,-0.0663 0.22714,-0.09 0.34355,-0.0647 0.16768,0.0364 0.19397,0.0151 0.29912,-0.24191 0.0634,-0.155 0.11529,-0.30634 0.11529,-0.33632 0,-0.03 -0.12599,-0.0354 -0.27998,-0.012 -0.40334,0.0613 -0.9717,0.18391 -0.9717,0.20964 0,0.0828 0.23899,0.54993 0.28137,0.54993 0.029,0 0.12452,-0.0471 0.21235,-0.10464 z m 2.06333,-1.4447 c -0.0786,-0.0786 -0.38308,0.0503 -0.38308,0.16206 0,0.19719 0.0864,0.21092 0.25652,0.0408 0.0906,-0.0906 0.14754,-0.18186 0.12656,-0.20283 z m -2.22766,-0.28376 c 0,-0.0299 -0.0741,-0.12402 -0.16469,-0.20912 -0.16948,-0.15921 -0.21795,-0.0908 -0.0965,0.13609 0.067,0.12526 0.26119,0.17954 0.26119,0.073 z m -0.52702,-0.52451 c 0,-0.0285 -0.14823,-0.19788 -0.32939,-0.37632 -0.28011,-0.27591 -0.32939,-0.30328 -0.32939,-0.18298 0,0.28096 0.12044,0.47943 0.29093,0.47943 0.0893,0 0.18076,0.0296 0.20315,0.0659 0.0483,0.0782 0.1647,0.0881 0.1647,0.014 z"
       id="path125" /></g><metadata
     id="metadata181"><rdf:RDF><cc:License
         rdf:about="http://creativecommons.org/publicdomain/zero/1.0/"><cc:permits
           rdf:resource="http://creativecommons.org/ns#Reproduction" /><cc:permits
           rdf:resource="http://creativecommons.org/ns#Distribution" /><cc:permits
           rdf:resource="http://creativecommons.org/ns#DerivativeWorks" /></cc:License><cc:Work
         rdf:about=""><cc:license
           rdf:resource="http://creativecommons.org/publicdomain/zero/1.0/" /><dc:title>Motorcycle silhouette</dc:title></cc:Work></rdf:RDF></metadata></svg>
